<?xml version="1.0" encoding="utf-8"?>
<svg version="1.1" xmlns:xlink="http://www.w3.org/1999/xlink" width="10px" height="5px" xmlns="http://www.w3.org/2000/svg">
  <g transform="matrix(1 0 0 1 -318 -1556 )">
    <path d="M 9.090516857055036 0.1687186582453329  C 9.090516857055036 0.1687186582453329  4.999999999999999 3.745368629841545  4.999999999999999 3.745368629841545  C 4.999999999999999 3.745368629841545  0.9094831429449051 0.16871865824540178  0.9094831429449051 0.16871865824540178  C 0.7192000578960934 -0.03811079161345379  0.39057001432198324 -0.05745714515404016  0.17546739644071818 0.1255073681826395  C -0.03963522144054727 0.3084718815193194  -0.0597554281899998 0.6244623226823489  0.1305276568588118 0.8312917725412045  C 0.32081074190762315 1.03812122240006  4.610522256956812 4.83128713663595  4.610522256956812 4.83128713663595  C 4.817476693089177 5.05623762112135  5.182523306910824 5.05623762112135  5.389477743043186 4.83128713663595  C 5.389477743043186 4.83128713663595  9.869472343141128 0.831291772541144  9.869472343141128 0.831291772541144  C 10.059755428189941 0.6244623226822885  10.03963522144063 0.30847188151936905  9.824532603559362 0.12550736818268934  C 9.609429985678096 -0.057457145153990294  9.28079994210385 -0.038110791613522516  9.090516857055036 0.1687186582453329  Z " fill-rule="nonzero" fill="#979797" stroke="none" transform="matrix(1 0 0 1 318 1556 )" />
  </g>
</svg>