<?xml version="1.0" encoding="utf-8"?>
<svg version="1.1" xmlns:xlink="http://www.w3.org/1999/xlink" width="20px" height="20px" xmlns="http://www.w3.org/2000/svg">
  <g transform="matrix(1 0 0 1 0 -69 )">
    <path d="M 10 69  C 15.600000000000001 69  20 73.4  20 79  C 20 84.6  15.600000000000001 89  10 89  C 4.3999999999999995 89  0 84.6  0 79  C 0 73.4  4.3999999999999995 69  10 69  Z " fill-rule="nonzero" fill="#ffffff" stroke="none" fill-opacity="0" />
    <path d="M 10 69.5  C 15.32 69.5  19.5 73.68  19.5 79  C 19.5 84.32  15.32 88.5  10 88.5  C 4.68 88.5  0.5 84.32  0.5 79  C 0.5 73.68  4.68 69.5  10 69.5  Z " stroke-width="1" stroke="#0070f5" fill="none" />
  </g>
</svg>