<?xml version="1.0" encoding="utf-8"?>
<svg version="1.1" xmlns:xlink="http://www.w3.org/1999/xlink" width="3px" height="5px" xmlns="http://www.w3.org/2000/svg">
  <g transform="matrix(1 0 0 1 -291 -21 )">
    <path d="M 0.05987411818859205 0.10405673852699224  C 0.05987411818859205 0.10405673852699224  0.09617527063552267 0.06924434738406594  0.09617527063552267 0.06924434738406594  C 0.20429851596133697 -0.017447181189250725  0.36642631147592253 -0.02213907395263072  0.48028925758571483 0.05180281677370655  C 0.48028925758571483 0.05180281677370655  0.5205257026400028 0.08321041046687036  0.5205257026400028 0.08321041046687036  C 0.5205257026400028 0.08321041046687036  2.91996817609077 2.3233818535824753  2.91996817609077 2.3233818535824753  C 3.013337777185551 2.4105537346931722  3.0250098302257475 2.539300168845112  2.9549838086714497 2.6368664627628995  C 2.9549838086714497 2.6368664627628995  2.919970732107264 2.6765594877416614  2.919970732107264 2.6765594877416614  C 2.919970732107264 2.6765594877416614  0.5205282586564968 4.916787202381543  0.5205282586564968 4.916787202381543  C 0.4078061607796467 5.02202963703464  0.21781809147606634 5.028284514983055  0.09617802883562021 4.930757863300622  C -0.011946471289198044 4.844067506249582  -0.029672453849057864 4.704557261255412  0.04689164140393101 4.600710110339115  C 0.04689164140393101 4.600710110339115  0.08003062522480653 4.563611954604665  0.08003062522480653 4.563611954604665  L 2.29023922608788 2.4996091308035955  C 2.29023922608788 2.4996091308035955  0.08003318124130071 0.4363904310083654  0.08003318124130071 0.4363904310083654  C -0.02016559314865021 0.3428426858520551  -0.02558852099638061 0.20257044696527993  0.05987411818859205 0.10405673852699224  Z " fill-rule="nonzero" fill="#0070f5" stroke="none" transform="matrix(1 0 0 1 291 21 )" />
  </g>
</svg>