<?xml version="1.0" encoding="utf-8"?>
<svg version="1.1" xmlns:xlink="http://www.w3.org/1999/xlink" width="94px" height="19px" xmlns="http://www.w3.org/2000/svg">
  <g transform="matrix(1 0 0 1 -16 -19 )">
    <path d="M 56 18.023437500003283  L 61.26408074610905 18.023437500003283  L 61.26408074610905 11.366163555253284  L 63.38455733352146 11.366163555253284  L 66.84691707365299 18.023437500003283  L 72.97338647431269 18.023437500003283  L 68.85006705209324 11.366163555253284  C 68.85006705209324 11.366163555253284  69.66520996307099 11.366163555253284  69.66520996307099 11.366163555253284  C 71.32713014175697 11.232567664253285  72.98413615921544 10.09623084060745  72.98413615921544 8.23020716621162  C 72.98413615921544 8.23020716621162  72.98413615921544 4.37690529593662  72.98413615921544 4.37690529593662  C 72.98413615921544 4.37690529593662  72.98413615921544 4.002343005751204  72.98413615921544 4.002343005751204  C 72.79125379086818 2.072452453578287  71.34985822299906 1.0305275349901626  69.64125317039229 0.8932291666699541  C 69.64125317039229 0.8932291666699541  55.93678271904851 0.8932291666699541  56 0.8932291666699541  L 56 18.023437500003283  Z M 93.09457124128478 14.919568800524118  C 93.09457124128478 14.919568800524118  93.09457124128478 3.841904462009536  93.09457124128478 3.841904462009536  C 92.90261023538525 1.9030663771949534  91.46612882874363 1.0363897122337038  89.76520202470755 0.8984742728749828  C 89.76520202470755 0.8984742728749828  78.44473171655967 0.8984742728749828  78.44473171655967 0.8984742728749828  C 76.74349824805363 1.0363897122337038  75.30701615689311 1.9030663771949534  75.11505583551248 3.841904462009536  C 75.11505583551248 3.841904462009536  75.11505583551248 14.919568800524118  75.11505583551248 14.919568800524118  C 75.30701615689311 16.858406823669952  76.74349824805363 17.88552205566995  78.44473171655967 18.023437500003283  C 78.44473171655967 18.023437500003283  89.76520202470755 18.023437500003283  89.76520202470755 18.023437500003283  C 91.46612882874363 17.88552205566995  92.90261023538525 16.858406823669952  93.09457124128478 14.919568800524118  Z M 10.654596054121079 9.460955899711621  L 7.191929101904464 0.8984742728749828  L 0 0.8984742728749828  L 0 18.023437500003283  L 6 18.023437500003283  L 6 7.2669588119887045  L 8.923262578012773 18.023437500003283  L 12.41265047870315 18.023437500003283  L 16 7.2669588119887045  L 16 18.023437500003283  L 22 18.023437500003283  L 22 0.8984742728749828  L 14.11757008151901 0.8984742728749828  L 10.654596054121079 9.460955899711621  Z M 28.781844740937768 10.984196431024118  L 37.29139326460512 10.984196431024118  L 37.29139326460512 7.621466287632453  L 28.781844740937768 7.621466287632453  L 28.781844740937768 4.270151954897036  L 37.29139326460512 4.270151954897036  L 37.29139326460512 1  L 24 1  L 24 18  L 37.475061392408094 18  L 37.4802827657207 14.652068332169954  L 28.78092331003815 14.652068332169954  L 28.781844740937768 10.984196431024118  Z M 54.3387469101277 4.270151954897036  L 49 4.270151954897036  L 49 18.023437500003283  L 44 18.023437500003283  L 44 4.270151954897036  L 38.8894290735259 4.270151954897036  L 38.8894290735259 1  L 54.3387469101277 1  L 54.3387469101277 4.270151954897036  Z M 68.1897217257236 6.924175696313702  C 68.1897217257236 7.294727023590784  68.09788769604805 7.619923609590785  67.4356994394273 7.619923609590785  C 67.4356994394273 7.619923609590785  61.26408074610905 7.619923609590785  61.26408074610905 7.619923609590785  L 61.26408074610905 4.258736137388704  C 61.26408074610905 4.258736137388704  67.44368503698686 4.258736137388704  67.44368503698686 4.258736137388704  C 68.1952502426694 4.258736137388704  68.1897217257236 4.75270172855537  68.1897217257236 5.061237384853287  C 68.1897217257236 5.061237384853287  68.1897217257236 6.924175696313702  68.1897217257236 6.924175696313702  Z M 87.01601528907868 4.270151954897037  C 87.67328897376059 4.335561517567871  87.74270192892345 4.746222480780371  87.76727341957991 4.9390572633970375  C 87.76727341957991 4.9390572633970375  87.76727341957991 13.886591405669954  87.76727341957991 13.886591405669954  C 87.74270192892345 14.079117611565788  87.67052488641741 14.586041725690787  87.01355786620547 14.651759782857457  C 87.01355786620547 14.651759782857457  81.24398211143028 14.651759782857457  81.24398211143028 14.651759782857457  C 80.58701509121835 14.586041725690787  80.46692446335491 14.079117611565788  80.44235365721737 13.886591405669954  C 80.44235365721737 13.886591405669954  80.44235365721737 4.9390572633970375  80.44235365721737 4.9390572633970375  C 80.46661779888494 4.746222480780371  80.55783747284218 4.335561517567871  81.21480449305412 4.270151954897037  C 81.21480449305412 4.270151954897037  87.01601528907868 4.270151954897037  87.01601528907868 4.270151954897037  Z " fill-rule="nonzero" fill="#ffe500" stroke="none" transform="matrix(1 0 0 1 16 19 )" />
  </g>
</svg>