<?xml version="1.0" encoding="utf-8"?>
<svg version="1.1" xmlns:xlink="http://www.w3.org/1999/xlink" width="18px" height="19px" xmlns="http://www.w3.org/2000/svg">
  <g transform="matrix(1 0 0 1 -189 -19 )">
    <path d="M 14.725137399509634 15.650978788831157  C 13.176606624912012 17.29303391490023  11.004558394492904 18.197879351418173  8.608082607770342 18.19807314996958  C 3.725669834142167 18.19807314996958  0.18188320091579158 14.653885241843621  0.18188320091579158 9.771324537702906  C 0.18188320091579158 7.435470597597801  1.0054297038998925 5.2500043333843  2.498386096565582 3.617639134885561  C 4.060084320540824 1.9108552926466444  6.229808883422692 0.9707385197726812  8.608082607770342 0.9707385197726812  C 11.004752033454338 0.9707385197726812  13.176606624912012 1.8759715533934358  14.725137399509634 3.5193832693223586  C 16.214608290869506 5.100779448801132  17.035637487354933 7.254850347686743  17.035637487354933 9.584502734146833  C 17.035637487354933 11.913767523504113  16.21480192983094 14.067838422389723  14.725137399509634 15.650978788831157  Z M 12.386366023294784 9.717642338963246  C 12.386366023294784 7.159889057497455  10.690863276967804 5.078298816837956  8.608082607770342 5.078298816837954  C 6.5253019385728805 5.078298816837954  4.830961026014506 7.159889057497452  4.830961026014506 9.717642338963245  C 4.830961026014506 12.209310314399346  6.454042800764711 14.089156263044458  8.608082607770342 14.089156263044458  C 10.761928775814539 14.089156263044458  12.386366023294784 12.209310314399346  12.386366023294784 9.717642338963246  Z " fill-rule="nonzero" fill="#ffe61c" stroke="none" transform="matrix(1 0 0 1 189 19 )" />
  </g>
</svg>