<?xml version="1.0" encoding="utf-8"?>
<svg version="1.1" xmlns:xlink="http://www.w3.org/1999/xlink" width="5px" height="10px" xmlns="http://www.w3.org/2000/svg">
  <g transform="matrix(1 0 0 1 -1026 -1066 )">
    <path d="M 0.1334765350968103 4.645222033419137  C 0.1334765350968103 4.645222033419137  4.132267994595104 0.1662712808261271  4.132267994595104 0.1662712808261271  C 4.320137651702765 -0.0441570324817115  4.636624458552517 -0.05651022505002102  4.839161062745216 0.1386796529696896  C 5.01919359980537 0.3121817667650011  5.04859171170061 0.5912669992872392  4.920955136741037 0.7989344685026822  C 4.920955136741037 0.7989344685026822  4.86571791967363 0.8731163569557707  4.86571791967363 0.8731163569557707  L 1.181645580715822 4.99791897548989  C 1.181645580715822 4.99791897548989  4.866589780264899 9.126960407654508  4.866589780264899 9.126960407654508  C 5.03354874748807 9.314042757601221  5.042654854555525 9.594634933031003  4.900342694531962 9.791737395539876  C 4.900342694531962 9.791737395539876  4.8398904708179895 9.861391536464248  4.8398904708179895 9.861391536464248  C 4.659824284538417 10.03485595295542  4.3897551789068165 10.044316873655  4.200044665112194 9.89645961142668  C 4.200044665112194 9.89645961142668  4.133002768758009 9.833651905518073  4.133002768758009 9.833651905518073  C 4.133002768758009 9.833651905518073  0.13340799188262784 5.351990320415742  0.13340799188262784 5.351990320415742  C -0.022257731232704598 5.1775623770059696  -0.04169306885271638 4.919859794171048  0.07508784347650925 4.724638146906073  C 0.07508784347650925 4.724638146906073  0.1334765350968103 4.645222033419137  0.1334765350968103 4.645222033419137  Z " fill-rule="nonzero" fill="#0070f5" stroke="none" transform="matrix(1 0 0 1 1026 1066 )" />
  </g>
</svg>