<?xml version="1.0" encoding="utf-8"?>
<svg version="1.1" xmlns:xlink="http://www.w3.org/1999/xlink" width="16px" height="18px" xmlns="http://www.w3.org/2000/svg">
  <g transform="matrix(1 0 0 1 -145 -20 )">
    <path d="M 15.105250390760744 4.344578026469785  C 15.105250390760744 1.6763595707021652  12.74091867163645 0.08256028393336123  8.781776466131504 0.0827540824847679  C 6.351994778042069 0.0827540824847679  3.913112058765222 0.940700269562285  2.8510023552929056 2.166863704312556  C 2.3800724010824013 2.7098872453541656  2.1879825513386493 3.303104611210112  2.2778310294445987 3.9304305221136406  C 2.429063058325511 4.9814000663922435  2.920906020371035 5.6186097034175155  3.664285993320931 5.72326092117714  C 3.7827930377193013 5.740702790803743  3.9034301106934493 5.7482609343086075  4.022130794053254 5.7482609343086075  C 4.975802679121813 5.7482609343086075  5.670191994828599 5.219384687519689  5.999378229268501 4.902717854521121  C 6.78923155296286 4.156399633053869  7.412361730861477 3.5678334324316827  8.924294741747843 3.5678334324316827  C 10.17016781962218 3.5678334324316827  10.828733927463446 4.0817871907622845  10.828733927463446 5.055237314478202  C 10.828733927463446 6.311051927593699  9.903333330764411 6.416478339558951  8.504291834394792 6.576168345918083  C 4.68515059800751 7.008920511209272  0.9992329670876927 7.718029410806432  0.9992329670876927 11.741287338009789  C 0.9992329670876927 14.339350718168177  2.53982454426648 16.208343947934516  5.226565134180447 16.867840418371557  C 5.804383795103206 17.010282353655487  6.454042510718466 17.085282393049887  7.10834856140815 17.085282393049887  C 8.812952338922571 17.085282393049887  10.252270739270728 16.586832518831823  10.775483213068753 15.816289478438733  C 10.775483213068753 15.816289478438733  10.879080057436596 15.663188622827434  10.879080057436596 15.663188622827434  C 10.879080057436596 15.663188622827434  10.933492605599895 15.839739103158948  10.933492605599895 15.839739103158948  C 11.119773286500589 16.448266554576026  11.344007203842608 16.621522459533626  11.616650861543434 16.784894638369483  C 11.94603073494477 16.98315055645855  12.336600520159664 17.08683278146114  12.746727840479508 17.08683278146114  C 13.963167796215686 17.08683278146114  15.105250390760744 16.168809043447546  15.105250390760744 14.694389664345273  C 15.105250390760744 14.694389664345273  15.105250390760744 4.344578026469785  15.105250390760744 4.344578026469785  Z M 10.668207228433545 9.037409948783331  L 10.668400867394979 10.611054186205834  C 10.668400867394979 12.794970062008076  9.31157266461824 13.750009323340358  7.655959544346928 13.750009323340358  C 6.331081770206993 13.750009323340358  5.209331266612622 12.943225953834215  5.203715736730999 11.9872176997449  C 5.198293845810809 10.710472843077477  6.218771172574549 10.423069591341324  7.901687386408241 10.101557794557587  C 9.569112483327103 9.78237158039073  10.38200884343226 9.243999204582884  10.528012620354417 9.138572792617634  C 10.528012620354417 9.138572792617634  10.668207228433545 9.037409948783331  10.668207228433545 9.037409948783331  Z " fill-rule="nonzero" fill="#ffe61c" stroke="none" transform="matrix(1 0 0 1 145 20 )" />
  </g>
</svg>