<?xml version="1.0" encoding="utf-8"?>
<svg version="1.1" xmlns:xlink="http://www.w3.org/1999/xlink" width="5px" height="10px" xmlns="http://www.w3.org/2000/svg">
  <g transform="matrix(1 0 0 1 -1192 -1066 )">
    <path d="M 0.09979019698098675 0.20811347705398447  C 0.09979019698098675 0.20811347705398447  0.1602921177258711 0.1384886947681319  0.1602921177258711 0.1384886947681319  C 0.3404975266022283 -0.03489436237850145  0.6107105191265375 -0.04427814790526144  0.8004820959761915 0.1036056335474131  C 0.8004820959761915 0.1036056335474131  0.8675428377333381 0.16642082093374072  0.8675428377333381 0.16642082093374072  C 0.8675428377333381 0.16642082093374072  4.86661362681795 4.646763707164951  4.86661362681795 4.646763707164951  C 5.0222296286425845 4.8211074693863445  5.041683050376245 5.078600337690224  4.924973014452416 5.273732925525799  C 4.924973014452416 5.273732925525799  4.86661788684544 5.353118975483323  4.86661788684544 5.353118975483323  C 4.86661788684544 5.353118975483323  0.867547097760828 9.833574404763086  0.867547097760828 9.833574404763086  C 0.6796769346327446 10.04405927406928  0.3630301524601106 10.05656902996611  0.16029671472603368 9.861515726601244  C -0.019910785481996738 9.688135012499163  -0.04945408974842977 9.409114522510825  0.07815273567321834 9.20142022067823  C 0.07815273567321834 9.20142022067823  0.13338437537467754 9.12722390920933  0.13338437537467754 9.12722390920933  L 3.8170653768131335 4.999218261607191  C 3.8170653768131335 4.999218261607191  0.13338863540216786 0.8727808620167308  0.13338863540216786 0.8727808620167308  C -0.03360932191441701 0.6856853717041101  -0.04264753499396769 0.40514089393055985  0.09979019698098675 0.20811347705398447  Z " fill-rule="nonzero" fill="#0070f5" stroke="none" transform="matrix(1 0 0 1 1192 1066 )" />
  </g>
</svg>