<?xml version="1.0" encoding="utf-8"?>
<svg version="1.1" xmlns:xlink="http://www.w3.org/1999/xlink" width="23px" height="17px" xmlns="http://www.w3.org/2000/svg">
  <g transform="matrix(1 0 0 1 -122 -20 )">
    <path d="M 16.094293767193808 4.310347578347576  C 17.2182663583737 4.310347578347576  18.427056083441634 5.074039886039884  18.427056083441634 6.751179487179485  C 18.427056083441634 6.751179487179485  18.427056083441634 14.564592592592591  18.427056083441634 14.564592592592591  C 18.427056083441634 16.16385185185185  19.577813032691434 17  20.714013265598897 17  C 21.85021349850636 17  23 16.16385185185185  23 14.564592592592591  C 23 14.564592592592591  23 5.515943019943019  23 5.515943019943019  C 23 1.8883076923076911  20.624926161583772 0.00077492877492807  17.667001400820244 0.00077492877492807  C 15.331327741303946 0.00077492877492807  13.44555366154158 0.9262336182336172  13.048058260620076 1.7108490028490022  C 13.048058260620076 1.7108490028490022  12.961106141668497 1.8883076923076911  12.961106141668497 1.8883076923076911  C 12.961106141668497 1.8883076923076911  12.874542201819379 1.694381766381766  12.874542201819379 1.694381766381766  C 12.41493814450389 0.8194871794871793  10.686764780341258 0  8.627086462675736 0  C 6.797210173667957 0  5.065349108031934 0.47658119658119646  4.535096454068285 1.411532763532764  C 4.535096454068285 1.411532763532764  4.40971460397293 1.6223133903133904  4.40971460397293 1.6223133903133904  C 4.40971460397293 1.6223133903133904  4.36177448481882 1.3629059829059835  4.36177448481882 1.3629059829059835  C 4.196798366272298 0.47503133903133987  3.2098529982616317 0.0007749287749291712  2.364398913098513 0.0007749287749291712  C 1.1897689490472731 0.0007749287749291712  0 0.7962393162393167  0 2.326917378917379  C 0 2.326917378917379  0 14.564592592592591  0 14.564592592592591  C 0 16.16385185185185  1.1513392179034951 17  2.2887039881183444 17  C 3.4256805792307308 17  4.576631618031764 16.16385185185185  4.576631618031764 14.564592592592591  C 4.576631618031764 14.564592592592591  4.576631618031764 6.7511794871794875  4.576631618031764 6.7511794871794875  C 4.576631618031764 5.060866096866097  5.778628208806604 4.290199430199431  6.895419486590943 4.290199430199431  C 8.012016674824052 4.290199430199431  9.214013265598892 5.060866096866097  9.214013265598892 6.7511794871794875  C 9.214013265598892 6.7511794871794875  9.214013265598892 14.564592592592591  9.214013265598892 14.564592592592591  C 9.214013265598892 16.16385185185185  10.365740662604848 17  11.502523164166007 17  C 12.639111576175928 17  13.78948034632327 16.16385185185185  13.78948034632327 14.564592592592591  C 13.78948034632327 14.564592592592591  13.78948034632327 6.7511794871794875  13.78948034632327 6.7511794871794875  C 13.78948034632327 5.064934472934473  14.947224519417395 4.310347578347577  16.094487856745037 4.310347578347577  Z " fill-rule="nonzero" fill="#ffe61c" stroke="none" transform="matrix(1 0 0 1 122 20 )" />
  </g>
</svg>