<?xml version="1.0" encoding="utf-8"?>
<svg version="1.1" xmlns:xlink="http://www.w3.org/1999/xlink" width="14px" height="21px" xmlns="http://www.w3.org/2000/svg">
  <g transform="matrix(1 0 0 1 -164 -16 )">
    <path d="M 9.660931814669912 19.849148507935922  C 10.166238751403869 20.5954746390464  10.895802384848468 21  11.722420737858211 21  C 12.160820212607382 21  12.602331662332583 20.877445799520263  12.96448775016886 20.65433925502486  C 13.849650132415302 20.1075738220184  14.426921490470104 18.878943837366393  13.601470128076372 17.47024602744258  C 13.601470128076372 17.47024602744258  9.715780373622552 11.113446497991896  9.715780373622552 11.113446497991896  C 9.715780373622552 11.113446497991896  12.981409114101059 7.8930695071179775  12.981409114101059 7.8930695071179775  C 14.159291642530942 6.723304138444432  13.912862124116037 5.414772675054453  13.185632471903466 4.6925713865580985  C 12.784187699994735 4.293642989090977  12.22772767459217 4.064553483627275  11.659403244593474 4.064553483627275  C 11.063654535118449 4.064553483627275  10.502137550379828 4.311012875773145  10.032618325870295 4.777297833818895  C 10.032618325870295 4.777297833818895  4.597943027094216 10.157523734249922  4.597943027094216 10.157523734249922  C 4.597943027094216 10.157523734249922  4.597943027094216 2.3534266466928275  4.597943027094216 2.3534266466928275  C 4.597943027094216 0.8005587773070244  3.4416498250605856 0  2.3014999932151348 0  C 1.1584326848296578 0  0 0.8082787269435432  0 2.3534266466928275  C 0 2.3534266466928275  0 18.626501484252216  0 18.626501484252216  C 0 20.18187833726989  1.1560987035976324 20.99633302392265  2.2989715135471025 20.99633302392265  C 3.441649825060576 20.99633302392265  4.597943027094205 20.18187833726989  4.597943027094205 18.626501484252216  C 4.597943027094205 18.626501484252216  4.597943027094205 16.03433539505004  4.597943027094205 16.03433539505004  L 6.29124641093017 14.392302107362442  L 9.64634443196973 19.82695365273093  L 9.660931814669901 19.849341506676833  Z " fill-rule="nonzero" fill="#ffe61c" stroke="none" transform="matrix(1 0 0 1 164 16 )" />
  </g>
</svg>