<?xml version="1.0" encoding="utf-8"?>
<svg version="1.1" xmlns:xlink="http://www.w3.org/1999/xlink" width="10px" height="17px" xmlns="http://www.w3.org/2000/svg">
  <g transform="matrix(1 0 0 1 -180 -20 )">
    <path d="M 2.395421699836953 0.10991586742608256  C 1.2054946731390779 0.10991586742608256  0 0.9707630813130529  0 2.6179611155775437  C 0 2.6179611155775437  0 14.711016498137306  0 14.711016498137306  C 0 16.21441916818588  1.176953987996873 17  2.338739499974119 17  C 3.501522938005292 17  4.6784769260021655 16.214226671045033  4.6784769260021655 14.71101649813731  C 4.6784769260021655 14.71101649813731  4.6784769260021655 7.821351329928777  4.6784769260021655 7.821351329928777  C 4.6784769260021655 5.260754362324915  6.386127989475332 4.968158708230951  7.208019887486375 4.826673309705254  C 8.85180368350847 4.544472501217261  9.866494895137448 3.6897851958375325  9.990437311034695 2.4828281226999422  C 10.07765604814757 1.4106190481582561  9.566917493749745 0.6138733821747651  8.512907995596183 0.17921483813255124  C 8.236083308237923 0.06179158221326434  7.89918347243349 0  7.53753507049177 0  C 6.470951704058785 0  5.074453984198835 0.5624766455674703  4.5844722917226015 1.6048486632772074  C 4.5844722917226015 1.6048486632772074  4.45913277934986 1.8726121862013532  4.45913277934986 1.8726121862013532  C 4.45913277934986 1.8726121862013532  4.411232328761549 1.583096486361012  4.411232328761549 1.583096486361012  C 4.249967478447582 0.615220862160724  3.274794138553949 0.10991586742608692  2.395421699836935 0.10991586742608692  Z " fill-rule="nonzero" fill="#ffe61c" stroke="none" transform="matrix(1 0 0 1 180 20 )" />
  </g>
</svg>